<svg xmlns="http://www.w3.org/2000/svg" width="4720.673" height="3389.231" viewBox="0 0 4720.673 3389.231">
  <g id="Group_5" data-name="Group 5" transform="translate(-140 -805)">
    <g id="Group_4" data-name="Group 4" transform="translate(-514.451 369.21)">
      <g id="Group_3" data-name="Group 3" transform="translate(-1037.927 -989.436)">
        <g id="Group_1" data-name="Group 1" transform="translate(1692.378 1425.226)">
          <path id="Path_1" data-name="Path 1" d="M5189.662,3594.279c-6.038,2.4-17.249,17.968-20.37,22.77-19.792,29.977-35.507,69.12-48.167,102.586-249.041,657.928-879.979,1094.823-1585.337,1094.823-935.923,0-1694.616-758.766-1694.616-1694.616,0-935.926,758.693-1694.615,1694.616-1694.615,692.7,0,1281.443,303.319,1532.737,971.573l.8,2.256.652,2.256c15.422,55.292,58.207,238.274,114.813,262.935,42.628,18.555,122.082-46.709,150.165-71.007l1.382-1.236,1.6-1.163c127.684-95.893,291.531-208.809,444.382-259.083,88.91-29.25,197.386-43,272.4,25.9,153.441,141.075,25.391,498.74-44.014,654.944a1738.317,1738.317,0,0,1-100.691,193.6c-48.239,79.739,1.233,226.776,30.19,306.443,27.568,75.739,60.9,149.659,87.163,225.617,19.791,57.04,45.978,141,1.233,192.872-58.133,67.371-178.755,19.207-244.963-8.657-70.645-29.685-140.131-65.989-207.356-102.731-100.98-55.3-200.216-114.3-298.437-174.249C5265.325,3637.858,5202.392,3594.352,5189.662,3594.279Z" transform="translate(-1406.311 -1425.226)" fill="#0d102b" fill-rule="evenodd"/>
          <path id="Path_2" data-name="Path 2" d="M5333.956,2601.847c-37.4,32.3-82.437,66.061-129.215,82.939-35.07,12.657-71.74,15.861-106.589.655-50.779-22.118-80.833-76.466-101.13-125.211-25.1-60.386-41.979-126.594-59.515-189.6-239.364-635.153-797.762-917.371-1455.614-917.371-890.67,0-1612.69,722.023-1612.69,1612.693s722.02,1612.694,1612.69,1612.694c429.109,0,836.687-168.864,1140.143-472.183a1616.2,1616.2,0,0,0,368.585-569.676c16.15-42.851,37.1-93.922,64.747-130.668,18.7-24.883,42.859-45.616,75.236-47.507,25.1-1.528,48.672,8.876,69.918,21.172,22.552,12.95,43.866,28.3,66.126,41.906,97.132,59.3,195.2,117.645,295.095,172.282,64.76,35.36,131.694,70.5,199.79,99.093,34.268,14.405,78.506,31.721,115.681,35.869,8.515.947,28.884,2.4,35.507-5.164,15.5-18.044-10.042-93.562-16.661-112.627-12.223-35.357-26.339-70.279-40.306-105.057-15.863-39.578-31.8-79.157-46.42-119.319-39.872-109.494-88.9-268.467-23.357-376.871a1652.8,1652.8,0,0,0,95.967-184.434c47-105.862,89.27-227.651,104.11-342.9,8.3-64.823,12.443-169.591-40.665-218.482-49.479-45.472-134.671-27.066-191.349-8.441-62.206,20.519-123.46,51.875-180.069,84.614C5490.812,2488.5,5410.854,2544.222,5333.956,2601.847Z" transform="translate(-1352.418 -1371.334)" fill="#5f5ba7" fill-rule="evenodd"/>
          <circle id="Ellipse_1" data-name="Ellipse 1" cx="875.61" cy="875.61" r="875.61" transform="translate(775.277 1343.717) rotate(-45)" fill="#2e317f"/>
          <path id="Path_3" data-name="Path 3" d="M3016.83,2898.241c14.48,9.312,28.811,19.061,43.432,28.01,97.131,59.3,195.2,117.645,295.095,172.282,64.758,35.361,131.693,70.5,199.789,99.093,34.268,14.405,78.506,31.721,115.681,35.868,8.514.948,28.884,2.4,35.506-5.164,15.5-18.044-10.042-93.563-16.661-112.627-12.222-35.357-26.338-70.279-40.305-105.057-15.864-39.578-31.8-79.158-46.42-119.32-39.872-109.494-88.9-268.467-23.357-376.871a1652.788,1652.788,0,0,0,95.965-184.434c47-105.861,89.27-227.651,104.111-342.9,8.3-64.823,12.444-169.591-40.665-218.482a72.949,72.949,0,0,0-6.844-5.676c-31.5,250.932-113.278,478.363-287.6,662.727-27.358,194.33,15.054,413.976-59.592,496.263C3326.257,2986.713,3188.536,2959.937,3016.83,2898.241Z" transform="translate(853.97 -775.896)" fill="#2c347d" fill-rule="evenodd"/>
          <path id="Path_4" data-name="Path 4" d="M2203.269,2005.849c-161.373-106.805-421.981-235.655-495.539-30.631-67.079,187.123,85.924,365.452,453.776,396.081-369.816,49.323-508.922,236.965-424.6,421.179,95.094,207.716,358.467,46.708,507.541-70.355a1649.916,1649.916,0,0,1-41.176-716.274Z" transform="translate(-1692.378 -576.717)" fill="#0d102a" fill-rule="evenodd"/>
          <path id="Path_5" data-name="Path 5" d="M2130.356,1985.136c-28.009-17.24-56.531-33.248-85.05-47.726-69.335-35.068-189.6-85.415-266.213-48.6-32.443,15.569-51.729,44.526-63.583,77.63-12.663,35.43-17.462,72.824-10.624,110,12.95,70.428,63.878,123.248,122.882,159.7,81.993,50.637,186.036,75.3,282.945,86.362-.944-22.991-1.529-45.983-1.529-69.191a1715.006,1715.006,0,0,1,21.171-268.177Zm-16.077,400.155c-95.457,15.5-197.823,44.748-276.761,98.585-56.239,38.341-103.751,92.253-113.279,161.88-5.6,40.452,2.688,80.395,19.57,117.28,15.5,33.832,38.414,62.354,73.99,75.738,78.5,29.612,189.456-23.936,256.245-63a1162.1,1162.1,0,0,0,97.856-64.46A1689.789,1689.789,0,0,1,2114.279,2385.291Z" transform="translate(-1674.324 -558.698)" fill="#b31e22" fill-rule="evenodd"/>
          <circle id="Ellipse_2" data-name="Ellipse 2" cx="875.609" cy="875.609" r="875.609" transform="translate(612.964 1342.698) rotate(-45)" fill="#0d102b"/>
          <path id="Path_6" data-name="Path 6" d="M2850.091,1604.017c450.356,0,815.367,365.014,815.367,815.367s-365.011,815.443-815.367,815.443-815.44-365.087-815.44-815.443S2399.735,1604.017,2850.091,1604.017Z" transform="translate(-1034.335 -1081.488)" fill="#abacae" fill-rule="evenodd"/>
          <path id="Path_7" data-name="Path 7" d="M2838.5,1603.494A787.149,787.149,0,0,1,3149.89,1667.3c251.516,124.7,424.38,384.078,424.38,683.828,0,421.325-341.51,762.913-762.836,762.913-414.342,0-751.486-330.312-762.618-741.958C2060.238,1945.662,2409.391,1603.494,2838.5,1603.494Z" transform="translate(-1007.102 -1082.494)" fill="#fff" fill-rule="evenodd"/>
          <path id="Path_8" data-name="Path 8" d="M2515.152,1768.967c189.09,0,342.311,153.294,342.311,342.384s-153.221,342.385-342.311,342.385-342.387-153.295-342.387-342.385S2326.059,1768.967,2515.152,1768.967Z" transform="translate(-768.804 -764.361)" fill="#19191a" fill-rule="evenodd"/>
          <path id="Path_9" data-name="Path 9" d="M2311.71,1792.641a124.484,124.484,0,1,1-124.556,124.481A124.481,124.481,0,0,1,2311.71,1792.641Z" transform="translate(-741.14 -718.846)" fill="#fff" fill-rule="evenodd"/>
          <path id="Path_10" data-name="Path 10" d="M3978.4,1627.845c-985.616-265.045-1752.6,224.234-2049,1052.261C2071.7,1739.089,3000.644,1230.1,3978.4,1627.845Z" transform="translate(-1236.691 -1297.828)" fill="#9882bc" fill-rule="evenodd"/>
          <path id="Path_11" data-name="Path 11" d="M1752.271,2119.29c-113.138-300.335,106.946-250.859,345.95-140.927C1938.157,1974.651,1830.771,1924.67,1752.271,2119.29Z" transform="translate(-1636.002 -525.876)" fill="#ec1c24" fill-rule="evenodd"/>
          <path id="Path_12" data-name="Path 12" d="M4894.014,1946.762c-552.8,1497.737-1940.532,1978.5-2960.782,503.315C2536.446,4127.237,4678.942,3792.05,4894.014,1946.762Z" transform="translate(-1229.322 -422.538)" fill="#2c347d" fill-rule="evenodd"/>
        </g>
      </g>
    </g>
  </g>
</svg>
